<svg xmlns="http://www.w3.org/2000/svg" width="75" viewBox="0 0 255.76 120.35"><defs><style>.cls-1{fill:#027bce;}.cls-2{fill:#9db3c2;}</style></defs><title>Paykun Payment Solution Private Limited</title><g id="Layer_2" data-name="Layer 2"><g id="Layer_1-2" data-name="Layer 1"><g id="_Group_" data-name="&lt;Group&gt;"><g id="_Group_2" data-name="&lt;Group&gt;"><polygon id="_Path_" data-name="&lt;Path&gt;" class="cls-1" points="127.39 36.66 117.38 83.7 129.34 83.7 132.08 70.72 137.59 65.24 145.87 83.7 159.04 83.7 147.5 58.46 169.01 36.66 155.23 36.66 135.31 56.74 135.08 56.74 139.35 36.66 127.39 36.66"/><polygon id="_Path_2" data-name="&lt;Path&gt;" class="cls-1" points="244.25 36.66 238.19 65.41 237.96 65.41 224.08 36.66 214.69 36.66 204.68 83.7 216.16 83.7 222.25 54.94 222.48 54.94 236.37 83.7 245.75 83.7 255.76 36.66 244.25 36.66"/><path id="_Path_3" data-name="&lt;Path&gt;" class="cls-1" d="M202.43,37.36C191.51,6.58,153.73-8.11,118.05,4.55A75.9,75.9,0,0,0,84.46,27.89a77.42,77.42,0,0,1,28-17.18c34-12,69.34.39,79.05,27.76a44,44,0,0,1,1.91,21.71l-1.36,6c-1.11,5.25-4.37,8.12-9.06,8.12s-7.73-2.54-7.79-6.75a14.14,14.14,0,0,1,.32-3l5.94-28h-12l-6,28.16a17.82,17.82,0,0,0-.43,4.08c0,9.12,7.17,15.61,19.17,15.61,11,0,19.14-5.83,21.19-15.68l1.63-8.65A51.91,51.91,0,0,0,202.43,37.36Z"/></g><g id="_Group_3" data-name="&lt;Group&gt;"><path id="_Compound_Path_" data-name="&lt;Compound Path&gt;" class="cls-2" d="M43.91,50.84c0-8.55-6.16-14.18-16.43-14.18H10L0,83.7H12L14.9,69.91h7.79C35.53,69.91,43.91,62.6,43.91,50.84Zm-21.22,10h-5.9l3.19-15h5c4.37,0,6.88,2,6.88,6.06C31.88,57.19,28.26,60.88,22.69,60.88Z"/><polygon id="_Path_4" data-name="&lt;Path&gt;" class="cls-2" points="99.99 56.28 99.73 56.28 94.38 36.66 81.99 36.66 91.64 67.46 89.31 78.5 88.22 83.7 92.14 83.7 100.18 83.7 103.57 67.66 126.36 36.66 113.32 36.66 99.99 56.28"/><path id="_Compound_Path_2" data-name="&lt;Compound Path&gt;" class="cls-2" d="M83.92,81.88a43.55,43.55,0,0,1-2.07-8.52l-7.77-36.7H59.45l-26.21,47H45.89L51.2,73.36H70A50.81,50.81,0,0,0,72.35,83c10.92,30.78,48.7,45.48,84.38,32.82,13.85-4.92,25.8-12.53,34.05-22.66-7.49,7.27-17.46,12.58-28.48,16.49C128.35,121.69,93.63,109.26,83.92,81.88ZM55.5,64.76l8.84-17.61,3.73,17.61Z"/></g></g></g></g></svg>